<svg viewBox="37.43992800000001 264.23928 1026 568.08" xml:space="preserve" version="1.1" xmlns:xlink="http://www.w3.org/1999/xlink" xmlns="http://www.w3.org/2000/svg" style="max-height: 500px" width="1026" height="568.08">
<desc>Created with Fabric.js 5.2.4</desc>
<defs>
</defs>
<rect fill="transparent" height="100%" width="100%" y="0" x="0" style="--darkreader-inline-fill: transparent;" data-darkreader-inline-fill=""/>
<g id="c5c2427d-c737-480e-a131-fd7aa3751ee7" transform="matrix(1 0 0 1 540 540)">
<rect height="1080" width="1080" ry="0" rx="0" y="-540" x="-540" style="stroke: none; stroke-width: 1px; stroke-dasharray: none; stroke-linecap: butt; stroke-dashoffset: 0px; stroke-linejoin: miter; stroke-miterlimit: 4; fill: rgb(255, 255, 255); fill-rule: nonzero; opacity: 1; visibility: hidden; --darkreader-inline-stroke: none; --darkreader-inline-fill: #e8e6e3;" data-darkreader-inline-stroke="" data-darkreader-inline-fill=""/>
</g>
<g id="721ab05d-4c61-4711-a0c8-bb4db88159ec" transform="matrix(Infinity NaN NaN Infinity 0 0)">
</g>
<g id="f73387c5-047d-43fb-a470-32a9c74f9cf4" transform="matrix(-0.31 0 0 0.25 540 540)">
<path stroke-linecap="round" d="M 2590 2254 C 2266 2217 2133 2183 1785 2048 C 1312 1864 1042 1802 832 1830 C 641 1855 458 1950 365 2071 C 338 2107 321 2120 306 2118 L 285 2115 L 289 1295 C 292 646 295 470 305 450 C 313 436 342 402 372 374 C 519 233 709 160 932 160 C 1147 160 1364 215 1765 370 C 2176 530 2339 570 2638 589 C 2898 604 3203 571 3313 515 C 3370 486 3386 484 3394 506 C 3397 515 3400 886 3400 1331 L 3400 2140 L 3368 2160 C 3323 2188 3223 2218 3116 2236 C 3029 2250 2667 2263 2590 2254 z M 3094 2066 C 3196 2038 3242 2019 3273 1992 C 3293 1974 3294 1889 3283 1151 L 3277 698 L 3255 690 C 3240 684 3212 688 3171 701 C 2981 759 2485 749 2233 680 C 2193 669 2154 663 2145 666 C 2119 676 2128 711 2171 757 C 2328 928 2342 1363 2200 1657 C 2178 1702 2133 1772 2100 1811 C 2044 1877 2041 1885 2053 1904 C 2074 1934 2240 2015 2345 2045 C 2488 2085 2613 2099 2815 2096 C 2974 2093 3007 2089 3094 2066 z M 483 1818 C 613 1718 888 1648 1085 1665 C 1226 1676 1308 1697 1442 1754 C 1476 1768 1480 1768 1501 1751 L 1524 1733 L 1496 1671 C 1451 1569 1437 1484 1443 1325 C 1451 1118 1496 958 1593 803 C 1633 738 1731 640 1756 640 C 1763 640 1777 629 1785 616 C 1807 583 1794 562 1727 511 C 1567 391 1383 321 1142 289 C 1021 273 848 282 750 310 C 660 335 439 439 408 472 L 385 495 L 382 1151 C 379 1627 381 1813 389 1829 C 405 1859 433 1855 483 1818 z M 1848 1807 C 1854 1801 1862 1768 1867 1736 L 1875 1676 L 1934 1659 C 2000 1639 2042 1605 2038 1575 C 2034 1549 1994 1543 1970 1565 C 1960 1574 1933 1586 1909 1591 C 1780 1620 1673 1482 1740 1372 C 1767 1328 1810 1304 1889 1290 C 2005 1270 2045 1252 2089 1205 C 2197 1088 2171 925 2029 838 C 2004 822 2004 821 2013 751 C 2023 679 2015 650 1986 650 C 1960 651 1949 670 1937 736 L 1925 805 L 1868 812 C 1793 821 1742 849 1692 905 C 1633 972 1617 1067 1662 1083 C 1685 1091 1710 1070 1710 1044 C 1710 986 1773 916 1844 895 C 1935 868 1981 879 2038 944 C 2092 1005 2092 1084 2039 1145 C 2005 1183 1981 1194 1877 1214 C 1835 1223 1785 1237 1767 1246 C 1652 1304 1611 1433 1670 1550 C 1688 1585 1723 1617 1784 1655 C 1798 1664 1799 1673 1790 1729 C 1782 1775 1782 1796 1791 1806 C 1805 1823 1834 1824 1848 1807 z" transform="translate(-1842.5, -1208.49)" style="stroke: rgb(0, 0, 0); stroke-width: 0px; stroke-dasharray: none; stroke-linecap: butt; stroke-dashoffset: 0px; stroke-linejoin: miter; stroke-miterlimit: 4; fill: rgb(0, 0, 0); fill-rule: nonzero; opacity: 0.5; --darkreader-inline-stroke: #e8e6e3; --darkreader-inline-fill: #e8e6e3;" data-darkreader-inline-stroke="" data-darkreader-inline-fill=""/>
</g>
</svg>